<?xml version="1.0" encoding="UTF-8" standalone="no"?>
<!-- Created with Inkscape (http://www.inkscape.org/) -->

<svg
   xmlns:dc="http://purl.org/dc/elements/1.1/"
   xmlns:cc="http://creativecommons.org/ns#"
   xmlns:rdf="http://www.w3.org/1999/02/22-rdf-syntax-ns#"
   xmlns:svg="http://www.w3.org/2000/svg"
   xmlns="http://www.w3.org/2000/svg"
   xmlns:sodipodi="http://sodipodi.sourceforge.net/DTD/sodipodi-0.dtd"
   xmlns:inkscape="http://www.inkscape.org/namespaces/inkscape"
   width="128"
   height="128"
   id="svg2"
   version="1.1"
   inkscape:version="0.48.3.1 r9886"
   sodipodi:docname="icon.svg">
  <sodipodi:namedview
     id="base"
     pagecolor="#ffffff"
     bordercolor="#666666"
     borderopacity="1.0"
     inkscape:pageopacity="0.0"
     inkscape:pageshadow="2"
     inkscape:zoom="5.2550599"
     inkscape:cx="76.283334"
     inkscape:cy="61.766121"
     inkscape:document-units="px"
     inkscape:current-layer="layer1"
     showgrid="true"
     inkscape:window-width="1600"
     inkscape:window-height="878"
     inkscape:window-x="1366"
     inkscape:window-y="0"
     inkscape:window-maximized="1"
     inkscape:snap-grids="true">
    <inkscape:grid
       spacingy="2px"
       spacingx="2px"
       snapvisiblegridlinesonly="true"
       enabled="true"
       visible="true"
       empspacing="5"
       units="px"
       id="grid2985"
       type="xygrid" />
  </sodipodi:namedview>
  <defs
     id="defs4">
    <linearGradient
       id="linearGradient3852">
      <stop
         id="stop3854"
         offset="0"
         style="stop-color:#000000;stop-opacity:1;" />
      <stop
         id="stop3856"
         offset="1"
         style="stop-color:#ffffff;stop-opacity:1;" />
    </linearGradient>
    <linearGradient
       id="linearGradient3844">
      <stop
         id="stop3846"
         offset="0"
         style="stop-color:#ffffff;stop-opacity:1;" />
      <stop
         id="stop3848"
         offset="1"
         style="stop-color:#000000;stop-opacity:0;" />
    </linearGradient>
  </defs>
  <metadata
     id="metadata7">
    <rdf:RDF>
      <cc:Work
         rdf:about="">
        <dc:format>image/svg+xml</dc:format>
        <dc:type
           rdf:resource="http://purl.org/dc/dcmitype/StillImage" />
        <dc:title />
      </cc:Work>
    </rdf:RDF>
  </metadata>
  <g
     transform="translate(0,-924.36218)"
     id="layer1"
     inkscape:groupmode="layer"
     inkscape:label="Calque 1">
    <g
       id="g3894"
       transform="translate(33,0)">
      <path
         style="fill:#ffc800;fill-opacity:1;stroke:none"
         d="m 18,1012.3622 60,0 c 5,0 10,-5 10,-10 0,-10.00002 -40,-20.00002 -60,-20.00002 -15,0 -20,10 -20,20.00002 0,5 5,10 10,10 z"
         id="path2997"
         inkscape:connector-curvature="0" />
      <path
         inkscape:connector-curvature="0"
         id="path2999"
         d="m 48,997.36218 c 10,0 20,0 20,-5 0,-2 -15,-7 -25,-7 -5,0 0,10 5,12 z"
         style="fill:#36546e;fill-opacity:1;stroke:none" />
      <circle
         id="circle3001"
         cx="20"
         cy="50"
         r="7"
         sodipodi:cx="20"
         sodipodi:cy="50"
         sodipodi:rx="7"
         sodipodi:ry="7"
         transform="translate(8,962.36218)"
         d="m 27,50 c 0,3.865993 -3.134007,7 -7,7 -3.865993,0 -7,-3.134007 -7,-7 0,-3.865993 3.134007,-7 7,-7 3.865993,0 7,3.134007 7,7 z"
         style="fill:#808080;fill-opacity:1;stroke:#000000;stroke-width:4;stroke-miterlimit:4;stroke-opacity:1;stroke-dasharray:none" />
      <circle
         sodipodi:ry="7"
         sodipodi:rx="7"
         sodipodi:cy="50"
         sodipodi:cx="60"
         r="7"
         cy="50"
         cx="60"
         id="circle3003"
         transform="translate(8,962.36218)"
         d="m 67,50 c 0,3.865993 -3.134007,7 -7,7 -3.865993,0 -7,-3.134007 -7,-7 0,-3.865993 3.134007,-7 7,-7 3.865993,0 7,3.134007 7,7 z"
         style="fill:#808080;fill-opacity:1;stroke:#000000;stroke-width:4;stroke-miterlimit:4;stroke-opacity:1;stroke-dasharray:none" />
    </g>
    <rect
       transform="translate(0,924.36218)"
       y="98"
       x="0"
       height="30"
       width="128"
       id="rect3761"
       style="opacity:0.67105263999999998;fill:#808080;fill-opacity:1;stroke:none" />
    <rect
       style="opacity:0.67105264;fill:#808080;fill-opacity:1;stroke:none"
       id="rect3763"
       width="10"
       height="17.999996"
       x="10"
       y="924.36218" />
    <g
       id="g3900"
       transform="translate(-100,-20)">
      <path
         inkscape:connector-curvature="0"
         id="path3771"
         d="m 120,1022.3622 -10,0 10,-10 z"
         style="fill:#ff0000;stroke:none" />
      <path
         inkscape:connector-curvature="0"
         id="path3769"
         d="m 110,1002.3622 10,-10.00002 0,10.00002 -10,10 z"
         style="fill:#ff0000;stroke:none"
         sodipodi:nodetypes="ccccc" />
      <path
         style="fill:#ff0000;stroke:none"
         d="m 110,58 10,0 -10,10 z"
         id="path3767"
         inkscape:connector-curvature="0"
         transform="translate(0,924.36218)" />
      <rect
         style="fill:none;stroke:#000000;stroke-width:1"
         id="rect3765"
         width="10"
         height="39.999996"
         x="110"
         y="982.36224" />
    </g>
    <path
       style="fill:#ff0000;fill-opacity:1;stroke:none"
       d="m 28,972.36218 -2,0 0,4 -2,0 4,4 4,-4 -2,0 0,-4 z"
       id="path3908"
       inkscape:connector-curvature="0" />
  </g>
</svg>
