<?xml version="1.0" encoding="UTF-8" standalone="no"?>
<!-- Created with Inkscape (http://www.inkscape.org/) -->

<svg
   xmlns:dc="http://purl.org/dc/elements/1.1/"
   xmlns:cc="http://creativecommons.org/ns#"
   xmlns:rdf="http://www.w3.org/1999/02/22-rdf-syntax-ns#"
   xmlns:svg="http://www.w3.org/2000/svg"
   xmlns="http://www.w3.org/2000/svg"
   xmlns:sodipodi="http://sodipodi.sourceforge.net/DTD/sodipodi-0.dtd"
   xmlns:inkscape="http://www.inkscape.org/namespaces/inkscape"
   width="128"
   height="128"
   id="svg2"
   version="1.1"
   inkscape:version="0.48.3.1 r9886"
   sodipodi:docname="RightAndAhead.icon.svg">
  <defs
     id="defs4" />
  <sodipodi:namedview
     id="base"
     pagecolor="#ffffff"
     bordercolor="#666666"
     borderopacity="1.0"
     inkscape:pageopacity="0.0"
     inkscape:pageshadow="2"
     inkscape:zoom="2.8"
     inkscape:cx="135.23845"
     inkscape:cy="40.009807"
     inkscape:document-units="px"
     inkscape:current-layer="layer1"
     showgrid="true"
     inkscape:window-width="1600"
     inkscape:window-height="878"
     inkscape:window-x="1366"
     inkscape:window-y="0"
     inkscape:window-maximized="1">
    <inkscape:grid
       type="xygrid"
       id="grid2985"
       units="px"
       empspacing="5"
       visible="true"
       enabled="true"
       snapvisiblegridlinesonly="true"
       spacingx="2px"
       spacingy="2px" />
  </sodipodi:namedview>
  <metadata
     id="metadata7">
    <rdf:RDF>
      <cc:Work
         rdf:about="">
        <dc:format>image/svg+xml</dc:format>
        <dc:type
           rdf:resource="http://purl.org/dc/dcmitype/StillImage" />
        <dc:title></dc:title>
      </cc:Work>
    </rdf:RDF>
  </metadata>
  <g
     inkscape:label="Calque 1"
     inkscape:groupmode="layer"
     id="layer1"
     transform="translate(0,-924.36218)">
    <path
       sodipodi:type="arc"
       style="fill:#ffa500;fill-opacity:1;stroke:none"
       id="path3913"
       sodipodi:cx="104"
       sodipodi:cy="48"
       sodipodi:rx="8"
       sodipodi:ry="8"
       d="m 112,48 a 8,8 0 1 1 -16,0 8,8 0 1 1 16,0 z"
       transform="matrix(1.25,0,0,1.25,-66,972.36218)" />
    <g
       id="g3925"
       transform="translate(40,-40)">
      <path
         sodipodi:type="arc"
         style="fill:#264370;fill-opacity:1;stroke:none"
         id="path3915"
         sodipodi:cx="104"
         sodipodi:cy="48"
         sodipodi:rx="8"
         sodipodi:ry="8"
         d="m 112,48 a 8,8 0 1 1 -16,0 8,8 0 1 1 16,0 z"
         transform="translate(-80,940.36218)" />
      <path
         transform="matrix(0.375,0,0,0.375,-10,970.36218)"
         d="m 112,48 a 8,8 0 1 1 -16,0 8,8 0 1 1 16,0 z"
         sodipodi:ry="8"
         sodipodi:rx="8"
         sodipodi:cy="48"
         sodipodi:cx="104"
         id="path3917"
         style="fill:#3a69b0;fill-opacity:1;stroke:none"
         sodipodi:type="arc" />
      <path
         sodipodi:type="arc"
         style="fill:#aaaaaa;fill-opacity:1;stroke:none"
         id="path3919"
         sodipodi:cx="104"
         sodipodi:cy="48"
         sodipodi:rx="8"
         sodipodi:ry="8"
         d="m 112,48 a 8,8 0 1 1 -16,0 8,8 0 1 1 16,0 z"
         transform="matrix(0.25,0,0,0.25,10,976.36218)" />
      <path
         transform="matrix(0.25,0,0,0.25,-10,964.36218)"
         d="m 112,48 a 8,8 0 1 1 -16,0 8,8 0 1 1 16,0 z"
         sodipodi:ry="8"
         sodipodi:rx="8"
         sodipodi:cy="48"
         sodipodi:cx="104"
         id="path3921"
         style="fill:#aaaaaa;fill-opacity:1;stroke:none"
         sodipodi:type="arc" />
      <path
         sodipodi:type="arc"
         style="fill:#aaaaaa;fill-opacity:1;stroke:none"
         id="path3923"
         sodipodi:cx="104"
         sodipodi:cy="48"
         sodipodi:rx="8"
         sodipodi:ry="8"
         d="m 112,48 a 8,8 0 1 1 -16,0 8,8 0 1 1 16,0 z"
         transform="matrix(0.25,0,0,0.25,-10,988.36218)" />
    </g>
  </g>
</svg>
